<svg xmlns="http://www.w3.org/2000/svg" xmlns:xlink="http://www.w3.org/1999/xlink" width="132.217" height="158.961" viewBox="0 0 132.217 158.961">
  <defs>
    <clipPath id="clip-path">
      <rect id="Rectangle_442" data-name="Rectangle 442" width="132.217" height="158.961" fill="none"/>
    </clipPath>
  </defs>
  <g id="Logo" transform="translate(0 0)">
    <g id="Group_738" data-name="Group 738" transform="translate(0 0)" clip-path="url(#clip-path)">
      <path id="Path_191" data-name="Path 191" d="M66.054,314.064a7.174,7.174,0,0,1,1.727,4.679c0,3.271-1.966,5.245-4.075,5.245a4.578,4.578,0,0,1-2.649-.828c3.365-1.426,5.344-4.369,5.344-6.879a7.093,7.093,0,0,0-.347-2.216m-10.185-.809a7.1,7.1,0,0,1,2.217-.347c2.51,0,5.453,1.98,6.879,5.345a4.577,4.577,0,0,0,.828-2.65c0-2.109-1.974-4.076-5.245-4.076a7.175,7.175,0,0,0-4.679,1.727M55.06,323.44a7.1,7.1,0,0,1-.347-2.217c0-2.51,1.98-5.453,5.345-6.878a4.576,4.576,0,0,0-2.65-.828c-2.109,0-4.076,1.974-4.076,5.245a7.171,7.171,0,0,0,1.728,4.679m10.185.809a7.112,7.112,0,0,1-2.217.347c-2.51,0-5.452-1.98-6.879-5.344a4.575,4.575,0,0,0-.828,2.649c0,2.11,1.974,4.076,5.245,4.076a7.173,7.173,0,0,0,4.679-1.727" transform="translate(-28.593 -167.016)" fill="#e71618"/>
      <path id="Path_192" data-name="Path 192" d="M227.1,337.426h-.168v-1.059h-.387v-.149h.944v.149H227.1Z" transform="translate(-121.456 -180.253)" fill="#e71618"/>
      <path id="Path_193" data-name="Path 193" d="M229.625,337.146h.006l.355-.928h.263v1.208h-.168v-1.009h0l-.4,1.009h-.11l-.4-1.009h0v1.009H229v-1.208h.264Z" transform="translate(-122.772 -180.253)" fill="#e71618"/>
      <path id="Path_194" data-name="Path 194" d="M115.055,320.668c0-3.3,1.919-5.583,5.076-5.583s5.076,2.3,5.076,5.583c0,3.336-1.969,5.566-5.076,5.566-3.14,0-5.076-2.23-5.076-5.566m8.079,0c0-2.412-.981-3.915-3-3.915-1.975,0-3,1.437-3,3.915,0,2.46,1.029,3.9,3,3.9,1.958,0,3-1.438,3-3.9" transform="translate(-61.683 -168.923)" fill="#e71618"/>
      <path id="Path_195" data-name="Path 195" d="M167.32,315.38v10.874h6.71v-1.617H169.3v-3.119h4.169V319.9H169.3V317h4.187l.528-1.617Z" transform="translate(-89.703 -169.081)" fill="#e71618"/>
      <path id="Path_196" data-name="Path 196" d="M147,320.228l-.513,1.571h1.657v2.436a3.421,3.421,0,0,1-1.578.33c-2.3,0-3.44-1.536-3.44-3.881,0-2.313,1.157-3.931,3.508-3.931a4.708,4.708,0,0,1,2.464.735l.544-1.668a7,7,0,0,0-3.153-.735c-3.322,0-5.435,2.428-5.435,5.732,0,3.121,1.869,5.416,5.365,5.416a8.013,8.013,0,0,0,3.683-.874v-5.131H147Z" transform="translate(-75.624 -168.923)" fill="#e71618"/>
      <path id="Path_197" data-name="Path 197" d="M95.329,315.38h3.276c3,0,3.938,1.863,3.938,3.315a3.117,3.117,0,0,1-1.987,2.982v.069c.213.062.668.276,1.259,1.336l1.8,3.172h-2.225l-1.553-2.747c-.625-1.124-.879-1.487-1.879-1.487h-.694v4.234H95.329Zm3.226,5.022c1.663,0,2.006-1.04,2.006-1.718,0-.578-.3-1.685-2.006-1.685H97.262v3.4Z" transform="translate(-51.108 -169.081)" fill="#e71618"/>
      <path id="Path_198" data-name="Path 198" d="M187.8,315.38h3.276c3,0,3.938,1.863,3.938,3.315a3.117,3.117,0,0,1-1.988,2.982v.069c.212.062.668.276,1.259,1.336l1.8,3.172H193.86l-1.553-2.747c-.625-1.124-.879-1.487-1.879-1.487h-.694v4.234H187.8Zm3.225,5.022c1.663,0,2.006-1.04,2.006-1.718,0-.578-.3-1.685-2.006-1.685h-1.293v3.4Z" transform="translate(-100.684 -169.081)" fill="#e71618"/>
      <path id="Path_199" data-name="Path 199" d="M210.425,317.975c0-.86.816-1.228,1.727-1.228a6.382,6.382,0,0,1,2.356.478v-1.818a8.211,8.211,0,0,0-2.541-.327c-2.376,0-3.654,1.4-3.654,3s1.3,2.418,2.374,2.992l.779.415c.893.475,1.55.849,1.55,1.676,0,.94-.908,1.386-1.815,1.386a5.255,5.255,0,0,1-2.649-.654l-.525,1.607a6.962,6.962,0,0,0,3.21.723c2.228,0,3.891-1.3,3.891-3.235,0-1.37-.932-2.238-2.465-3.055l-.724-.385c-.853-.454-1.515-.812-1.515-1.579" transform="translate(-111.528 -168.921)" fill="#e71618"/>
      <path id="Path_200" data-name="Path 200" d="M112.911,85.814l3.52-63.927L132.1,4.845a.438.438,0,0,0,.076-.482c-1.466-3.172-5.333-4.3-5.5-4.347a.435.435,0,0,0-.459.143l-14.5,17.612c-12.815-3.929-28.456-8.48-45.6-8.507H66.1c-17.149.027-32.794,4.579-45.611,8.509L6,.171A.439.439,0,0,0,5.538.028C5.374.074,1.507,1.2.041,4.375a.439.439,0,0,0,.075.481L15.787,21.9l3.52,63.915c.64,9.808,5.319,18.411,13.651,25.352l-2.8,3.272a.43.43,0,0,0-.364.124l-4.8,4.768a.48.48,0,0,0-.073.1,1.286,1.286,0,0,1-1.056.616,2.39,2.39,0,0,1-1.4-.6c-.549-.424-1.137-.912-1.769-1.437a43.815,43.815,0,0,0-6.672-4.8l-.336-.186c-2.3-1.275-4.68-2.592-6.678-2.592a3.6,3.6,0,0,0-2.73,1.161,8.055,8.055,0,0,0-2.294,7.571c.661,2.471,1.745,4.779,7.68,5.86a60.855,60.855,0,0,0,9.893,1.273,9.5,9.5,0,0,0,2.775-.336c2.93-.916,8.481-7.243,10.112-9.16a.441.441,0,0,0,.1-.327.55.55,0,0,0-.011-.064l2.885-3.3a60.945,60.945,0,0,0,8.19,5.038,84.054,84.054,0,0,0,22.352,7.627c.045.006.089,0,.135.005h.012c.045,0,.09,0,.135-.005A84.065,84.065,0,0,0,88.6,118.139a60.963,60.963,0,0,0,8.184-5.033l2.891,3.308a.468.468,0,0,0-.011.064.439.439,0,0,0,.1.327c1.631,1.917,7.182,8.245,10.114,9.16a9.463,9.463,0,0,0,2.774.336h0a60.851,60.851,0,0,0,9.892-1.273c5.936-1.081,7.02-3.389,7.68-5.86a8.054,8.054,0,0,0-2.294-7.571,3.6,3.6,0,0,0-2.73-1.161c-2,0-4.377,1.317-6.678,2.592l-.337.187a43.764,43.764,0,0,0-6.672,4.8c-.632.525-1.22,1.012-1.77,1.437a2.385,2.385,0,0,1-1.4.6,1.287,1.287,0,0,1-1.054-.614.441.441,0,0,0-.074-.1l-4.8-4.767a.434.434,0,0,0-.363-.125l-2.8-3.278c8.335-6.942,13.017-15.547,13.657-25.358" transform="translate(0 0)" fill="#007ab3"/>
      <path id="Path_201" data-name="Path 201" d="M88.742,27.471c17.528.032,33.614,4.977,46.549,8.956l.082.026s.166.122.166.247-3.5,63.6-3.5,63.6c-1.813,27.826-38.876,35.77-43.295,36.618-4.418-.848-41.482-8.792-43.295-36.618,0,0-3.5-63.47-3.5-63.6s.166-.247.166-.247l.082-.026c12.935-3.978,29.021-8.924,46.549-8.956" transform="translate(-22.488 -14.728)" fill="#fff"/>
      <path id="Path_202" data-name="Path 202" d="M101.376,177.647v4.823a.394.394,0,0,0,.443.443h1.629a.4.4,0,0,0,.443-.443v-4.807a2.872,2.872,0,0,0-3.147-3.163,4.44,4.44,0,0,0-2.277.648v-3.1a.394.394,0,0,0-.443-.443H96.458a.4.4,0,0,0-.443.443v10.421a.387.387,0,0,0,.443.443h1.566a.393.393,0,0,0,.443-.443v-5.044c0-.585.743-.965,1.533-.965s1.376.333,1.376,1.186m-2.3,7.682h-1.6a.393.393,0,0,0-.443.443v10.4a.393.393,0,0,0,.443.443h1.6a.394.394,0,0,0,.443-.443v-10.4a.394.394,0,0,0-.443-.443m5.456,2.846a9.582,9.582,0,0,0-2.466.348.536.536,0,0,0-.411.553v.98c-.015.238.142.427.554.333a10.027,10.027,0,0,1,2.15-.3c1.059,0,1.581.491,1.581,1.265v.269a7.179,7.179,0,0,0-1.613-.19c-2.2,0-3.557.981-3.557,2.784,0,1.534,1.154,2.641,3.494,2.641h.427a11.756,11.756,0,0,0,3.163-.491.552.552,0,0,0,.458-.57v-4.032a3.308,3.308,0,0,0-.822-2.672,4.138,4.138,0,0,0-2.957-.918m1.407,6.626a4.713,4.713,0,0,1-1.407.221c-.948,0-1.424-.4-1.424-.965,0-.585.412-1.044,1.63-1.044a3.288,3.288,0,0,1,1.2.206Zm14.623-11.888h1.629a.394.394,0,0,0,.443-.443v-7.29a.393.393,0,0,0-.443-.443h-1.629a.393.393,0,0,0-.443.443v7.29a.393.393,0,0,0,.443.443m0-9.345h1.629a.394.394,0,0,0,.443-.443v-1.059a.394.394,0,0,0-.443-.443h-1.629a.393.393,0,0,0-.443.443v1.059a.393.393,0,0,0,.443.443M95.263,194.2a8,8,0,0,1-2.388.38,3.189,3.189,0,0,1-3.447-3.542,3.258,3.258,0,0,1,3.4-3.59,7.751,7.751,0,0,1,2.245.38c.4.111.554-.1.554-.332v-1.2a.552.552,0,0,0-.411-.584,6.791,6.791,0,0,0-2.5-.379,5.627,5.627,0,0,0-5.851,5.835c0,3.78,2.53,5.6,5.645,5.6a8.863,8.863,0,0,0,2.894-.459.553.553,0,0,0,.412-.569v-1.249c0-.221-.142-.411-.554-.285m-3.771-11.144a8.862,8.862,0,0,0,2.894-.459.553.553,0,0,0,.411-.57v-1.249c0-.221-.142-.411-.554-.284a8,8,0,0,1-2.388.38,3.189,3.189,0,0,1-3.447-3.542,3.259,3.259,0,0,1,3.4-3.59,7.746,7.746,0,0,1,2.245.38c.4.11.553-.1.553-.332v-1.2A.551.551,0,0,0,94.2,172a6.787,6.787,0,0,0-2.5-.379,5.626,5.626,0,0,0-5.851,5.835c0,3.78,2.53,5.6,5.645,5.6m36.3,2.274h-1.629a.393.393,0,0,0-.443.443v1.059a.393.393,0,0,0,.443.443h1.629a.393.393,0,0,0,.443-.443v-1.059a.394.394,0,0,0-.443-.443m1.938-2.937v-1.06c0-.237-.08-.427-.475-.4-.19.016-.49.048-.7.048-.759,0-1-.411-1-1.06v-3.3h1.518c.3,0,.458-.142.458-.427v-1.027c0-.285-.158-.427-.458-.427h-1.518v-1.882a.4.4,0,0,0-.459-.443h-1.518a.406.406,0,0,0-.459.443v1.882H124.5c-.3,0-.443.142-.443.427v1.027a.389.389,0,0,0,.443.427h.632v3.574c0,1.865.791,2.845,2.862,2.845a5.527,5.527,0,0,0,1.36-.158.427.427,0,0,0,.38-.49m-1.938,6.052h-1.629a.393.393,0,0,0-.443.443v7.29a.393.393,0,0,0,.443.443h1.629a.394.394,0,0,0,.443-.443v-7.29a.393.393,0,0,0-.443-.443m8.329,6.041a7.385,7.385,0,0,1-1.945.332,2.319,2.319,0,0,1-.11-4.633,6.545,6.545,0,0,1,1.944.364c.4.11.554-.1.554-.332v-1.044a.563.563,0,0,0-.412-.585,5.9,5.9,0,0,0-2.166-.364,4.163,4.163,0,0,0-4.491,4.444c0,2.751,1.771,4.159,4.491,4.159a6.309,6.309,0,0,0,2.277-.411.567.567,0,0,0,.411-.569v-1.076c0-.221-.142-.411-.554-.284m2.053-19.747h-1.455c-.316,0-.459.142-.459.427v4.823c0,.57-.443,1.075-1.5,1.075-1.044,0-1.439-.617-1.439-1.265v-4.633c0-.285-.158-.427-.459-.427h-1.47c-.3,0-.459.142-.459.427v4.759c0,1.771,1.091,3.021,3.336,3.021a3.335,3.335,0,0,0,1.992-.506v.379c0,1.139-1.138,1.5-2.245,1.5a12.419,12.419,0,0,1-1.5-.174.394.394,0,0,0-.491.427v1c0,.285.11.427.427.522a7.356,7.356,0,0,0,1.724.206c2.64,0,4.459-1.234,4.459-3.937v-7.195a.4.4,0,0,0-.459-.427m-26.238,15.809c0-.4.552-.553,1.249-.553a10.273,10.273,0,0,1,2.134.364c.411.094.523-.1.523-.316v-.98a.536.536,0,0,0-.411-.553,8.017,8.017,0,0,0-2.341-.333c-2.055,0-3.415.839-3.415,2.546,0,3.115,4.427,2.261,4.427,3.605,0,.49-.585.648-1.328.648a9.477,9.477,0,0,1-2.72-.679.365.365,0,0,0-.506.347v1.044a.572.572,0,0,0,.4.585,6.355,6.355,0,0,0,2.815.586c1.976,0,3.685-.665,3.685-2.721,0-3.178-4.506-2.371-4.506-3.589m7.948,0c0-.4.554-.553,1.25-.553a10.278,10.278,0,0,1,2.134.364c.412.094.522-.1.522-.316v-.98a.535.535,0,0,0-.411-.553,8.021,8.021,0,0,0-2.341-.333c-2.055,0-3.415.839-3.415,2.546,0,3.115,4.427,2.261,4.427,3.605,0,.49-.585.648-1.328.648a9.477,9.477,0,0,1-2.721-.679.365.365,0,0,0-.506.347v1.044a.572.572,0,0,0,.4.585,6.355,6.355,0,0,0,2.815.586c1.977,0,3.684-.665,3.684-2.721,0-3.178-4.507-2.371-4.507-3.589m-7.408-8.457v-4.032a3.308,3.308,0,0,0-.822-2.672,4.138,4.138,0,0,0-2.957-.918,9.567,9.567,0,0,0-2.467.348.535.535,0,0,0-.411.553v.98c-.015.238.142.427.554.333a10,10,0,0,1,2.15-.3c1.06,0,1.582.49,1.582,1.265v.27a7.188,7.188,0,0,0-1.613-.19c-2.2,0-3.558.981-3.558,2.782,0,1.535,1.155,2.641,3.494,2.641h.427a11.759,11.759,0,0,0,3.163-.49.553.553,0,0,0,.458-.57m-2.371-1a4.737,4.737,0,0,1-1.407.221c-.949,0-1.424-.4-1.424-.965,0-.585.411-1.044,1.629-1.044a3.292,3.292,0,0,1,1.2.206Zm8.541-4.444c.237.015.443-.064.443-.364v-1.233c0-.3-.11-.4-.332-.459a2.368,2.368,0,0,0-.649-.063,2.163,2.163,0,0,0-1.929,1.249V175.2a.405.405,0,0,0-.443-.459h-1.375a.4.4,0,0,0-.443.459v7.274c0,.3.158.443.459.443h1.533c.317,0,.459-.142.459-.443v-3.922a1.7,1.7,0,0,1,1.739-1.913c.221,0,.427.016.538.016" transform="translate(-46.024 -92.002)" fill="#009dd9"/>
      <path id="Path_203" data-name="Path 203" d="M90.341,59.837a6.76,6.76,0,0,0,1.742-.252V57.666a4.4,4.4,0,0,0-1.493-.238c-1.466,0-1.959.552-1.959,1.252s.563,1.157,1.711,1.157m8.24,24.826,1.373-.1s-.127-.767-.726-.724-.647.828-.647.828m-3.86,1.916a1.07,1.07,0,0,0-.9.986l2.011-.432a.909.909,0,0,0-1.116-.554m2.134-1.312A1.043,1.043,0,0,0,96,86.23l1.841-.268a.893.893,0,0,0-.988-.7m38.712-44.429-1.8-.554c-11.581-3.568-26-8.008-41.882-8.008l-.136,0-.135,0c-16.159,0-30.832,4.542-42.622,8.192l-1.2.371a.438.438,0,0,0-.308.44l1.923,41.076a.439.439,0,0,0,.438.418H79.116a12.571,12.571,0,0,0,24.9,0H133.17a.439.439,0,0,0,.438-.415l2.267-41.076a.438.438,0,0,0-.309-.443M90.1,55.509a8.268,8.268,0,0,1,1.985.244v-.342c0-.916-.682-1.511-1.957-1.511a12.3,12.3,0,0,0-2.6.353c-.495.113-.677-.113-.673-.389V52.676a.641.641,0,0,1,.506-.664,10.9,10.9,0,0,1,2.967-.418,5.009,5.009,0,0,1,3.577,1.09c.708.693,1,1.6,1,3.232v4.972c0,.431-.36.532-.555.584a16.057,16.057,0,0,1-3.774.59c-.2,0-.289,0-.533,0h-.027c-2.819,0-4.225-1.336-4.225-3.194,0-2.165,1.651-3.363,4.309-3.363M68.3,61.882H68.27a11.3,11.3,0,0,1-3.908-.721c-.3-.117-.605-.292-.605-.714V58.925c0-.315.2-.5.6-.4a14.008,14.008,0,0,0,3.911.813c1.622,0,2.352-.466,2.355-1.3,0-.8-.645-1.376-2.618-1.987-2.729-.846-3.986-2.017-3.986-4.076,0-2.766,2.357-3.734,4.6-3.765a10.664,10.664,0,0,1,3.568.488.644.644,0,0,1,.514.673V50.7c0,.3-.187.516-.58.43a16.646,16.646,0,0,0-3.151-.474c-1.189,0-1.889.374-1.889,1.093s.347,1.15,2.545,1.851c2.295.73,4.056,1.555,4.045,4.283-.01,2.5-1.762,4-5.372,4m9.691-6.74v6.1a.474.474,0,0,1-.532.533H75.521a.473.473,0,0,1-.533-.533V48.659a.482.482,0,0,1,.533-.536h1.944a.476.476,0,0,1,.526.536v3.726a5.327,5.327,0,0,1,2.747-.786,3.451,3.451,0,0,1,3.775,3.824v5.818a.476.476,0,0,1-.534.533H82.041a.473.473,0,0,1-.531-.533V55.407a1.389,1.389,0,0,0-.348-1.036,1.837,1.837,0,0,0-1.316-.4c-.96,0-1.856.452-1.856,1.17m6.723,34.407,1.651-.281s-.294.561-.772.6a1.32,1.32,0,0,1-.879-.319m2.312,1.537a1.311,1.311,0,0,1-.877-.321l1.65-.282s-.3.565-.773.6m2.141.77a1.309,1.309,0,0,1-.875-.319l1.65-.283s-.3.565-.775.6M88.16,89.877l1.739-.324s-.3.683-.806.727a1.343,1.343,0,0,1-.932-.4M91,90.934a1.332,1.332,0,0,1-.913-.439l1.751-.249s-.33.669-.837.688m2.142-.731a1.332,1.332,0,0,1-.923-.417l1.743-.293s-.314.679-.82.71m1.892.689a1.333,1.333,0,0,1-.913-.439l1.75-.249s-.33.669-.837.688m1.67-1.6a1.486,1.486,0,0,1-.992-.412l1.851-.3s-.32.675-.859.708m2.117-1.359a1.344,1.344,0,0,1-.97-.3l1.692-.514s-.225.713-.722.809m1.873-1.677a1.227,1.227,0,0,1-.831-.35l1.581-.237s-.293.563-.751.587m1.505-3.226c-.19.436-.214,1.056-.623,1.252-.461.219-.688-.36-1.232.147s-.31,1.252-.726,1.5c-.451.266-.663-.3-1.29-.005s-.455.991-1.023,1.367-.668.077-1.178.261-.084.7-1.052.966-.644-.292-1.654-.106-.933.79-1.875.933-1.015-.7-1.718-.777c-.926-.1-.976.638-2.249.764-.544.008-.974-.885-1.257-1.062a1.5,1.5,0,0,0-1.719-.11c-.32.238-.967.177-1.277-.767a1.171,1.171,0,0,0-1.011-.779,11.027,11.027,0,0,1-.635-1.21l.908-.065a.7.7,0,0,0-1.122-.452,10.829,10.829,0,0,1-.432-1.381l.659-.036s-.116-.767-.607-.745a.393.393,0,0,0-.2.068,10.624,10.624,0,0,1-.156-1.785A10.831,10.831,0,1,1,102.2,83.034m8.315-24.6c0,2.537-1.766,3.52-4.142,3.52a4.773,4.773,0,0,1-2.892-.936,5.024,5.024,0,0,1-3.014.924c-2.371,0-4.009-1.244-4.009-3.508v-6a.477.477,0,0,1,.534-.534h1.742a.474.474,0,0,1,.533.534v5.772a1.2,1.2,0,0,0,1.381,1.3c.742,0,1.432-.276,1.432-.958V52.435a.475.475,0,0,1,.532-.534h1.742a.475.475,0,0,1,.533.534v6.111c0,.634.665.958,1.373.958a1.264,1.264,0,0,0,1.447-1.3V52.435a.476.476,0,0,1,.533-.534h1.742a.474.474,0,0,1,.533.534Zm3.05,6.736a1.2,1.2,0,0,1-.5.164c-.288,0-.444-.177-.444-.5v-2a.589.589,0,0,1,.253-.531s.05-.036.148-.1a7.637,7.637,0,0,0,0-12.744c-.1-.064-.148-.1-.148-.1a.591.591,0,0,1-.253-.531v-2c0-.325.156-.5.444-.5a1.2,1.2,0,0,1,.5.165,10.528,10.528,0,0,1,0,18.675M91.377,87.327a1.069,1.069,0,0,0-.949.931l2.033-.311a.916.916,0,0,0-1.084-.621m10.568-4.256a.716.716,0,0,0-.625-.606.658.658,0,0,0-.75.712ZM89.788,85.616a1.075,1.075,0,0,0-1.018.86l2.05-.16a.912.912,0,0,0-1.032-.7m-5.4.619a.886.886,0,0,0-.89.685l1.753-.045a.8.8,0,0,0-.863-.64m2.722-1.065a1.067,1.067,0,0,0-1.016.858l2.051-.16a.911.911,0,0,0-1.034-.7m.636,2.2a1.069,1.069,0,0,0-1.017.86l2.051-.163a.91.91,0,0,0-1.034-.7M84.226,82.8c-.622.039-.678.827-.678.827l1.43-.1s-.129-.765-.752-.722" transform="translate(-25.456 -17.303)" fill="#007ab3"/>
      <path id="Path_204" data-name="Path 204" d="M109.165,298.456a.129.129,0,0,1-.142-.143v-3.267a.141.141,0,0,1,.127-.152,6.147,6.147,0,0,1,1.033-.082c1.012,0,1.547.387,1.547,1.176,0,.87-.682,1.282-1.562,1.282-.148,0-.336-.015-.336-.015v1.058a.127.127,0,0,1-.142.143Zm1.76-2.447c0-.4-.315-.565-.7-.565a2.061,2.061,0,0,0-.392.031v1.156a2.064,2.064,0,0,0,.326.02c.453,0,.768-.173.768-.641" transform="translate(-58.449 -158.055)" fill="#6e7071"/>
      <path id="Path_205" data-name="Path 205" d="M116.377,299.407c0,.1-.045.143-.148.143h-.494a.128.128,0,0,1-.148-.143v-2.34a.131.131,0,0,1,.142-.148h.443a.131.131,0,0,1,.142.148v.188a.7.7,0,0,1,.621-.4.754.754,0,0,1,.209.02.127.127,0,0,1,.107.148v.4c0,.1-.066.122-.142.116-.036,0-.1-.005-.173-.005a.546.546,0,0,0-.56.616Z" transform="translate(-61.969 -159.148)" fill="#6e7071"/>
      <path id="Path_206" data-name="Path 206" d="M122.125,298.284c-.015.092-.061.127-.158.127h-1.654a.655.655,0,0,0,.748.576,2.6,2.6,0,0,0,.687-.112c.133-.041.183.02.178.092v.305a.184.184,0,0,1-.132.188,2.628,2.628,0,0,1-.789.128c-.886,0-1.486-.433-1.486-1.359a1.3,1.3,0,0,1,1.369-1.43,1.144,1.144,0,0,1,1.252,1.2,1.814,1.814,0,0,1-.015.285m-1.806-.372h1.069a.5.5,0,0,0-.514-.549.545.545,0,0,0-.555.549" transform="translate(-64.077 -159.119)" fill="#6e7071"/>
      <path id="Path_207" data-name="Path 207" d="M125.96,299.414a.184.184,0,0,1-.127-.188v-.336a.118.118,0,0,1,.163-.112,3.035,3.035,0,0,0,.875.219c.239,0,.427-.051.427-.209,0-.432-1.425-.157-1.425-1.16,0-.549.437-.82,1.1-.82a2.575,2.575,0,0,1,.753.107.172.172,0,0,1,.133.178v.316c0,.071-.036.132-.168.1a3.307,3.307,0,0,0-.687-.116c-.224,0-.4.05-.4.178,0,.392,1.45.133,1.45,1.155,0,.661-.549.876-1.185.876a2.041,2.041,0,0,1-.906-.189" transform="translate(-67.461 -159.125)" fill="#6e7071"/>
      <path id="Path_208" data-name="Path 208" d="M133.773,298.284c-.015.092-.061.127-.158.127h-1.654a.655.655,0,0,0,.748.576,2.6,2.6,0,0,0,.687-.112c.133-.041.183.02.178.092v.305a.184.184,0,0,1-.132.188,2.628,2.628,0,0,1-.789.128c-.886,0-1.486-.433-1.486-1.359a1.3,1.3,0,0,1,1.369-1.43,1.144,1.144,0,0,1,1.252,1.2,1.814,1.814,0,0,1-.015.285m-1.806-.372h1.069a.5.5,0,0,0-.514-.549.545.545,0,0,0-.555.549" transform="translate(-70.322 -159.119)" fill="#6e7071"/>
      <path id="Path_209" data-name="Path 209" d="M140.279,297.867v1.552a.131.131,0,0,1-.148.143h-.519c-.1,0-.132-.046-.132-.143v-1.541c0-.275-.178-.382-.448-.382s-.488.133-.488.351v1.572a.128.128,0,0,1-.148.143h-.5a.127.127,0,0,1-.142-.143v-2.34a.129.129,0,0,1,.142-.143h.483a.129.129,0,0,1,.142.143v.1a1.246,1.246,0,0,1,.8-.3.881.881,0,0,1,.951.992" transform="translate(-73.853 -159.16)" fill="#6e7071"/>
      <path id="Path_210" data-name="Path 210" d="M145.62,298.254v.341a.137.137,0,0,1-.122.157,1.775,1.775,0,0,1-.437.051c-.667,0-.921-.315-.921-.916v-1.15h-.2a.125.125,0,0,1-.143-.137v-.331c0-.092.046-.138.143-.138h.2v-.6a.131.131,0,0,1,.148-.143h.488c.1,0,.148.046.148.143v.6h.488c.1,0,.148.046.148.138v.331c0,.091-.051.137-.148.137h-.488V297.8c0,.208.076.341.321.341.066,0,.163-.01.224-.015.127-.01.153.051.153.128" transform="translate(-77.09 -158.361)" fill="#6e7071"/>
      <path id="Path_211" data-name="Path 211" d="M150.856,298.284c-.015.092-.061.127-.158.127h-1.654a.655.655,0,0,0,.748.576,2.6,2.6,0,0,0,.687-.112c.133-.041.183.02.178.092v.305a.184.184,0,0,1-.132.188,2.628,2.628,0,0,1-.789.128c-.886,0-1.486-.433-1.486-1.359a1.3,1.3,0,0,1,1.369-1.43,1.144,1.144,0,0,1,1.252,1.2,1.817,1.817,0,0,1-.015.285m-1.806-.372h1.069a.5.5,0,0,0-.514-.549.545.545,0,0,0-.555.549" transform="translate(-79.48 -159.119)" fill="#6e7071"/>
      <path id="Path_212" data-name="Path 212" d="M157.227,298.065c0,.117-.015.168-.158.235a2.84,2.84,0,0,1-1.084.213c-.87,0-1.455-.443-1.455-1.318a1.282,1.282,0,0,1,1.318-1.394,1.3,1.3,0,0,1,.59.133v-.962a.131.131,0,0,1,.142-.148h.5a.133.133,0,0,1,.143.148Zm-.789-1.552a.813.813,0,0,0-.458-.143c-.427,0-.641.305-.641.774,0,.534.264.763.707.763a.9.9,0,0,0,.392-.076Z" transform="translate(-82.846 -158.061)" fill="#6e7071"/>
      <path id="Path_213" data-name="Path 213" d="M166.806,297.058a1.345,1.345,0,0,1-1.435,1.42,2.4,2.4,0,0,1-1.048-.2.192.192,0,0,1-.132-.2V294.9a.129.129,0,0,1,.142-.143h.5a.129.129,0,0,1,.142.143v1a1.488,1.488,0,0,1,.621-.138,1.15,1.15,0,0,1,1.211,1.3m-.768.025c0-.519-.25-.743-.636-.743a.915.915,0,0,0-.428.112v1.369a.982.982,0,0,0,.366.066c.458,0,.7-.321.7-.8" transform="translate(-88.026 -158.025)" fill="#6e7071"/>
      <path id="Path_214" data-name="Path 214" d="M173.135,299.45c0,.87-.585,1.267-1.435,1.267a2.363,2.363,0,0,1-.555-.066c-.1-.031-.137-.077-.137-.168v-.321a.127.127,0,0,1,.158-.137,3.994,3.994,0,0,0,.483.056c.356,0,.723-.117.723-.484v-.122a1.07,1.07,0,0,1-.641.163.938.938,0,0,1-1.074-.972v-1.531c0-.091.051-.137.148-.137h.473c.1,0,.147.046.147.137v1.49c0,.208.127.407.463.407s.483-.163.483-.346v-1.552c0-.091.046-.137.148-.137h.468a.129.129,0,0,1,.147.137Z" transform="translate(-91.492 -159.226)" fill="#6e7071"/>
    </g>
  </g>
</svg>
